<!-- header logo(自分クエスト) -->
<svg width="464" height="81" viewBox="0 0 464 81" fill="none" xmlns="http://www.w3.org/2000/svg">
<g filter="url(#filter0_ddddd)">
<path d="M10.28 62.08V53.76H48.28V62.08H10.28ZM48.28 36.72V44.96H10.28V36.72H48.28ZM48.28 19.68V27.92H10.28V19.68H48.28ZM31 10.56C32.28 7.68 33.56 4.56 34.76 1.35999L23.24 0.0799971C22.84 3.28 21.96 7.12 21.08 10.56H0.600001V74.88H10.28V70.88H48.28V74.8H58.44V10.56H31ZM114.6 4.88C119 13.28 125 22.08 131.32 29.44H88.12C94.44 22.24 100.04 13.44 103.96 4.24L93.72 1.28C88.92 13.44 80.12 24.48 70.12 31.2C72.44 32.88 76.52 36.72 78.28 38.88C80.44 37.2 82.6 35.28 84.68 33.12V38.72H98.2C96.6 50.4 92.44 60.88 74.36 66.72C76.68 68.88 79.48 72.8 80.68 75.52C101.4 67.76 106.6 54.08 108.6 38.72H124.36C123.64 55.44 122.76 62.56 121.16 64.24C120.28 65.2 119.4 65.36 117.96 65.36C115.96 65.36 111.8 65.28 107.4 64.96C109.08 67.68 110.36 71.68 110.52 74.56C115.24 74.72 119.88 74.72 122.6 74.32C125.72 73.92 127.88 73.12 129.88 70.56C132.68 67.2 133.64 57.76 134.52 33.6V33.04C136.28 34.88 137.96 36.64 139.64 38.16C141.48 35.44 145.16 31.6 147.72 29.6C139 22.88 129 11.28 123.96 1.12L114.6 4.88ZM194.84 5.6L183.16 1.75999C182.44 4.48 180.76 8.16 179.56 10.16C175.56 17.04 168.6 27.36 154.6 35.92L163.56 42.56C171.4 37.2 178.36 30.16 183.72 23.2H206.2C204.92 29.2 200.28 38.8 194.84 45.04C187.88 52.96 179 59.92 162.6 64.8L172.04 73.28C187.08 67.36 196.76 60 204.36 50.72C211.56 41.76 216.12 31.12 218.28 24C218.92 22 220.04 19.76 220.92 18.24L212.76 13.2C210.92 13.76 208.28 14.16 205.8 14.16H189.72C189.8 14 189.88 13.92 189.96 13.76C190.92 12 193 8.39999 194.84 5.6ZM240.12 12.16V23.12C242.12 22.96 245.56 22.8 247.72 22.8H263.16V55.44H242.84C240.36 55.44 237.48 55.2 235 54.8V66.4C237.64 66.08 240.44 66 242.84 66H295.56C297.4 66 300.76 66.08 303.08 66.4V54.8C301 55.12 298.44 55.44 295.56 55.44H274.36V22.8H291.24C293.56 22.8 296.36 22.96 298.76 23.12V12.16C296.44 12.4 293.64 12.64 291.24 12.64H247.72C245.48 12.64 242.2 12.4 240.12 12.16ZM375.72 13.76L369.16 8.88C367.56 9.44 364.36 9.92 360.92 9.92H332.68C330.28 9.92 325.4 9.68 323.24 9.36V20.72C324.92 20.64 329.32 20.16 332.68 20.16H359.8C358.04 25.84 353.16 33.76 347.88 39.76C340.36 48.16 327.96 57.92 315.08 62.72L323.32 71.36C334.28 66.16 344.92 57.84 353.4 48.88C360.92 56.16 368.36 64.32 373.56 71.52L382.68 63.6C377.96 57.84 368.28 47.6 360.36 40.72C365.72 33.52 370.2 24.96 372.92 18.72C373.64 17.12 375.08 14.64 375.72 13.76ZM414.12 60.32C414.12 63.52 413.8 68.32 413.32 71.52H425.8C425.48 68.24 425.08 62.64 425.08 60.32V37.68C433.72 40.64 445.72 45.28 453.96 49.6L458.52 38.56C451.16 34.96 435.8 29.28 425.08 26.16V14.32C425.08 11.04 425.48 7.52 425.8 4.72H413.32C413.88 7.52 414.12 11.52 414.12 14.32V60.32Z" fill="url(#paint0_linear)"/>
</g>
<defs>
<filter id="filter0_ddddd" x="0.600006" y="0.079998" width="462.92" height="80.44" filterUnits="userSpaceOnUse" color-interpolation-filters="sRGB">
<feFlood flood-opacity="0" result="BackgroundImageFix"/>
<feColorMatrix in="SourceAlpha" type="matrix" values="0 0 0 0 0 0 0 0 0 0 0 0 0 0 0 0 0 0 127 0"/>
<feOffset dx="5" dy="5"/>
<feColorMatrix type="matrix" values="0 0 0 0 0.831373 0 0 0 0 0.67451 0 0 0 0 0.0666667 0 0 0 1 0"/>
<feBlend mode="darken" in2="BackgroundImageFix" result="effect1_dropShadow"/>
<feColorMatrix in="SourceAlpha" type="matrix" values="0 0 0 0 0 0 0 0 0 0 0 0 0 0 0 0 0 0 127 0"/>
<feOffset dx="3" dy="3"/>
<feColorMatrix type="matrix" values="0 0 0 0 0.831373 0 0 0 0 0.67451 0 0 0 0 0.0666667 0 0 0 1 0"/>
<feBlend mode="normal" in2="effect1_dropShadow" result="effect2_dropShadow"/>
<feColorMatrix in="SourceAlpha" type="matrix" values="0 0 0 0 0 0 0 0 0 0 0 0 0 0 0 0 0 0 127 0"/>
<feOffset dx="2" dy="2"/>
<feColorMatrix type="matrix" values="0 0 0 0 0.831373 0 0 0 0 0.67451 0 0 0 0 0.0666667 0 0 0 1 0"/>
<feBlend mode="normal" in2="effect2_dropShadow" result="effect3_dropShadow"/>
<feColorMatrix in="SourceAlpha" type="matrix" values="0 0 0 0 0 0 0 0 0 0 0 0 0 0 0 0 0 0 127 0"/>
<feOffset dx="1" dy="1"/>
<feColorMatrix type="matrix" values="0 0 0 0 0.831373 0 0 0 0 0.67451 0 0 0 0 0.0666667 0 0 0 1 0"/>
<feBlend mode="normal" in2="effect3_dropShadow" result="effect4_dropShadow"/>
<feColorMatrix in="SourceAlpha" type="matrix" values="0 0 0 0 0 0 0 0 0 0 0 0 0 0 0 0 0 0 127 0"/>
<feOffset dx="4" dy="4"/>
<feColorMatrix type="matrix" values="0 0 0 0 0.831373 0 0 0 0 0.67451 0 0 0 0 0.0666667 0 0 0 1 0"/>
<feBlend mode="normal" in2="effect4_dropShadow" result="effect5_dropShadow"/>
<feBlend mode="normal" in="SourceGraphic" in2="effect5_dropShadow" result="shape"/>
</filter>
<linearGradient id="paint0_linear" x1="232.5" y1="-6" x2="232.5" y2="76" gradientUnits="userSpaceOnUse">
<stop offset="0.40625" stop-color="#975EA9"/>
<stop offset="0.708333" stop-color="#70326E"/>
</linearGradient>
</defs>
</svg>